<?xml version="1.0" encoding="UTF-8"?>
<svg xmlns="http://www.w3.org/2000/svg" xmlns:xlink="http://www.w3.org/1999/xlink" width="64px" height="64px" viewBox="0 0 64 64" version="1.1">
<g id="surface1">
<path style=" stroke:none;fill-rule:nonzero;fill:rgb(0%,0%,0%);fill-opacity:1;" d="M 44.316406 0 C 44.464844 0 44.613281 0 44.773438 0 C 45.136719 4.511719 43.414062 7.886719 41.320312 10.328125 C 39.265625 12.753906 36.453125 15.105469 31.902344 14.75 C 31.597656 10.300781 33.324219 7.175781 35.414062 4.742188 C 37.355469 2.46875 40.910156 0.449219 44.316406 0 Z M 44.316406 0 "/>
<path style=" stroke:none;fill-rule:nonzero;fill:rgb(0%,0%,0%);fill-opacity:1;" d="M 58.089844 46.976562 C 58.089844 47.023438 58.089844 47.0625 58.089844 47.105469 C 56.8125 50.976562 54.988281 54.296875 52.761719 57.375 C 50.730469 60.171875 48.238281 63.933594 43.792969 63.933594 C 39.953125 63.933594 37.398438 61.464844 33.460938 61.398438 C 29.296875 61.332031 27.007812 63.464844 23.199219 64 C 22.765625 64 22.328125 64 21.902344 64 C 19.105469 63.59375 16.847656 61.378906 15.203125 59.386719 C 10.355469 53.488281 6.609375 45.875 5.914062 36.128906 C 5.914062 35.171875 5.914062 34.21875 5.914062 33.261719 C 6.207031 26.289062 9.597656 20.617188 14.101562 17.867188 C 16.480469 16.40625 19.75 15.160156 23.386719 15.71875 C 24.949219 15.960938 26.539062 16.492188 27.9375 17.023438 C 29.261719 17.53125 30.917969 18.433594 32.484375 18.386719 C 33.546875 18.355469 34.605469 17.800781 35.675781 17.410156 C 38.8125 16.277344 41.886719 14.980469 45.9375 15.589844 C 50.808594 16.324219 54.265625 18.488281 56.402344 21.828125 C 52.28125 24.449219 49.023438 28.402344 49.582031 35.148438 C 50.074219 41.277344 53.636719 44.863281 58.089844 46.976562 Z M 58.089844 46.976562 "/>
</g>
</svg>
